<?xml version="1.0" encoding="utf-8"?>
<!-- Generator: Adobe Illustrator 27.6.1, SVG Export Plug-In . SVG Version: 6.00 Build 0)  -->
<svg version="1.1" id="Layer_1" xmlns="http://www.w3.org/2000/svg" xmlns:xlink="http://www.w3.org/1999/xlink" x="0px" y="0px"
	 viewBox="0 0 61 64" style="enable-background:new 0 0 61 64;" xml:space="preserve">
<style type="text/css">
	.st0{fill-rule:evenodd;clip-rule:evenodd;fill:#2D0E58;}
</style>
<path class="st0" d="M32.2,0.5C31.6,0.2,31,0,30.3,0S29,0.2,28.5,0.5L1.9,15.7c-0.7,0.4-1.3,1.1-1.6,1.8c-0.3,0.8-0.4,1.6-0.2,2.4
	c0.2,0.8,0.7,1.5,1.4,2c0.7,0.5,1.5,0.8,2.3,0.8v33.7c-1,0-2,0.4-2.7,1.1C0.4,58.2,0,59.2,0,60.2c0,1,0.4,2,1.1,2.7
	C1.8,63.6,2.8,64,3.8,64h53.1c1,0,2-0.4,2.7-1.1c0.7-0.7,1.1-1.7,1.1-2.7c0-1-0.4-2-1.1-2.7c-0.7-0.7-1.7-1.1-2.7-1.1V22.8
	c0.8,0,1.6-0.3,2.3-0.8c0.7-0.5,1.1-1.2,1.4-2c0.2-0.8,0.2-1.7-0.2-2.4c-0.3-0.8-0.9-1.4-1.6-1.8L32.2,0.5z M15.2,26.5
	c-1,0-2,0.4-2.7,1.1c-0.7,0.7-1.1,1.7-1.1,2.7v18.5c0,1,0.4,2,1.1,2.7c0.7,0.7,1.7,1.1,2.7,1.1s2-0.4,2.7-1.1
	c0.7-0.7,1.1-1.7,1.1-2.7V30.3c0-1-0.4-2-1.1-2.7C17.1,26.9,16.2,26.5,15.2,26.5z M26.5,30.3c0-1,0.4-2,1.1-2.7
	c0.7-0.7,1.7-1.1,2.7-1.1s2,0.4,2.7,1.1c0.7,0.7,1.1,1.7,1.1,2.7v18.5c0,1-0.4,2-1.1,2.7c-0.7,0.7-1.7,1.1-2.7,1.1s-2-0.4-2.7-1.1
	c-0.7-0.7-1.1-1.7-1.1-2.7V30.3z M45.5,26.5c-1,0-2,0.4-2.7,1.1c-0.7,0.7-1.1,1.7-1.1,2.7v18.5c0,1,0.4,2,1.1,2.7
	c0.7,0.7,1.7,1.1,2.7,1.1s2-0.4,2.7-1.1c0.7-0.7,1.1-1.7,1.1-2.7V30.3c0-1-0.4-2-1.1-2.7C47.5,26.9,46.5,26.5,45.5,26.5z"/>
</svg>
