<?xml version="1.0" encoding="utf-8"?>
<!-- Generator: Adobe Illustrator 27.6.1, SVG Export Plug-In . SVG Version: 6.00 Build 0)  -->
<svg version="1.1" id="Layer_1" xmlns="http://www.w3.org/2000/svg" xmlns:xlink="http://www.w3.org/1999/xlink" x="0px" y="0px"
	 viewBox="0 0 56 65" style="enable-background:new 0 0 56 65;" xml:space="preserve">
<style type="text/css">
	.st0{fill:#9D75F6;}
</style>
<path class="st0" d="M49.4,0H6.6C2.9,0,0,2.9,0,6.6v43.3c0,3.6,2.9,6.6,6.6,6.6h36.3l-1.7-5.9l4.1,3.8l3.9,3.6L56,64V6.6
	C56,2.9,53.1,0,49.4,0z M37.1,41.8c0,0-1.2-1.4-2.1-2.6c4.2-1.2,5.8-3.8,5.8-3.8c-1.3,0.9-2.6,1.5-3.7,1.9c-1.6,0.7-3.1,1.1-4.6,1.4
	c-3.1,0.6-5.9,0.4-8.3,0c-1.8-0.4-3.4-0.9-4.7-1.4c-0.7-0.3-1.5-0.6-2.3-1.1c-0.1-0.1-0.2-0.1-0.3-0.2c-0.1,0-0.1-0.1-0.1-0.1
	c-0.6-0.3-0.9-0.5-0.9-0.5s1.5,2.6,5.6,3.8c-1,1.2-2.1,2.7-2.1,2.7c-7.1-0.2-9.8-4.9-9.8-4.9c0-10.3,4.6-18.7,4.6-18.7
	c4.6-3.5,9-3.4,9-3.4l0.3,0.4C17.7,17,15,19.5,15,19.5s0.7-0.4,1.9-0.9c3.4-1.5,6.1-1.9,7.3-2c0.2,0,0.4-0.1,0.5-0.1
	c2.1-0.3,4.3-0.3,6.5-0.1c3,0.4,6.3,1.2,9.6,3.1c0,0-2.5-2.4-8-4.1l0.4-0.5c0,0,4.4-0.1,9,3.4c0,0,4.6,8.4,4.6,18.7
	C46.9,36.9,44.2,41.6,37.1,41.8L37.1,41.8z M22.2,26.9c-1.8,0-3.3,1.6-3.3,3.6c0,2,1.5,3.6,3.3,3.6c1.8,0,3.3-1.6,3.3-3.6
	C25.5,28.5,24,26.9,22.2,26.9L22.2,26.9z M33.9,26.9c-1.8,0-3.3,1.6-3.3,3.6c0,2,1.5,3.6,3.3,3.6c1.8,0,3.3-1.6,3.3-3.6
	C37.2,28.5,35.7,26.9,33.9,26.9z"/>
</svg>
