<?xml version="1.0" encoding="utf-8"?>
<!-- Generator: Adobe Illustrator 27.6.1, SVG Export Plug-In . SVG Version: 6.00 Build 0)  -->
<svg version="1.1" id="Layer_1" xmlns="http://www.w3.org/2000/svg" xmlns:xlink="http://www.w3.org/1999/xlink" x="0px" y="0px"
	 viewBox="0 0 64 64" style="enable-background:new 0 0 64 64;" xml:space="preserve">
<style type="text/css">
	.st0{fill:#F2A872;}
</style>
<path class="st0" d="M32.3,0C49.8,0,64,14.6,64,32S49.8,64,32.3,64L0,64V31.4C0,14.1,14.8,0,32.3,0L32.3,0z M32.6,12.2
	c-6.9,0-13.3,3.6-16.9,9.5c-3.6,5.9-3.7,13.2-0.4,19.2l-3.6,11.4l12.8-2.9c7.3,3.3,15.9,1.8,21.7-3.7c5.8-5.5,7.6-13.9,4.6-21.3
	C47.8,17,40.6,12.2,32.6,12.2L32.6,12.2z"/>
</svg>
