<?xml version="1.0" encoding="utf-8"?>
<!-- Generator: Adobe Illustrator 27.6.1, SVG Export Plug-In . SVG Version: 6.00 Build 0)  -->
<svg version="1.1" id="Layer_1" xmlns="http://www.w3.org/2000/svg" xmlns:xlink="http://www.w3.org/1999/xlink" x="0px" y="0px"
	 viewBox="0 0 16 16" style="enable-background:new 0 0 16 16;" xml:space="preserve">
<style type="text/css">
	.st0{clip-path:url(#SVGID_00000032634099278888251990000005433144687970971524_);}
	.st1{fill:#2D0E58;}
</style>
<g>
	<defs>
		<rect id="SVGID_1_" width="16" height="16"/>
	</defs>
	<clipPath id="SVGID_00000120539237515922749310000006238539192301947310_">
		<use xlink:href="#SVGID_1_"  style="overflow:visible;"/>
	</clipPath>
	<g style="clip-path:url(#SVGID_00000120539237515922749310000006238539192301947310_);">
		<path class="st1" d="M14.6,2.1l-1.3-1.3c-0.1-0.1-0.3-0.1-0.5,0c-0.1,0.1-0.1,0.3,0,0.5l1.1,1.1l-1.1,1.1
			c-0.1,0.1-0.1,0.1-0.1,0.2v1C12.7,5.4,13.3,6,14,6v5.7c0,0.2-0.1,0.3-0.3,0.3c-0.2,0-0.3-0.1-0.3-0.3V11c0-0.6-0.4-1-1-1H12V1.3
			C12,0.6,11.4,0,10.7,0H4C3.3,0,2.7,0.6,2.7,1.3v12c-0.7,0-1.3,0.6-1.3,1.3v1c0,0.2,0.1,0.3,0.3,0.3H13c0.2,0,0.3-0.1,0.3-0.3v-1
			c0-0.7-0.6-1.3-1.3-1.3v-2.7h0.3c0.2,0,0.3,0.1,0.3,0.3v0.7c0,0.6,0.4,1,1,1c0.6,0,1-0.4,1-1V2.3C14.7,2.2,14.6,2.2,14.6,2.1z
			 M10.7,5.7c0,0.2-0.1,0.3-0.3,0.3h-6C4.1,6,4,5.9,4,5.7v-4c0-0.2,0.1-0.3,0.3-0.3h6c0.2,0,0.3,0.1,0.3,0.3V5.7z"/>
	</g>
</g>
</svg>
