<?xml version="1.0" encoding="utf-8"?>
<!-- Generator: Adobe Illustrator 27.6.1, SVG Export Plug-In . SVG Version: 6.00 Build 0)  -->
<svg version="1.1" id="Layer_1" xmlns="http://www.w3.org/2000/svg" xmlns:xlink="http://www.w3.org/1999/xlink" x="0px" y="0px"
	 viewBox="0 0 28 24" style="enable-background:new 0 0 28 24;" xml:space="preserve">
<style type="text/css">
	.st0{fill:#9D75F6;stroke:#9D75F6;stroke-width:0.5499;stroke-miterlimit:10;}
	.st1{fill-rule:evenodd;clip-rule:evenodd;fill:#F2A872;}
	.st2{fill:none;stroke:#2D0E58;stroke-width:0.9733;stroke-miterlimit:10;}
</style>
<path class="st0" d="M19.3,8c-0.2,0-0.5,0-0.7,0.1c-0.3-1.9-2-3.4-4.2-3.4c-2.1,0-3.9,1.5-4.2,3.4c-0.2,0-0.4,0-0.5,0
	c-2.3,0-4.2,1.8-4.2,3.9c0,2.2,1.9,3.9,4.2,3.9c0.6,0,1.1-0.1,1.6-0.3c0-0.3,0-0.7,0.2-1c0.2-0.5,0.5-1,0.9-1.4
	c0.1-0.2,0.3-0.4,0.5-0.5c0-0.7,0.7-1.3,1.4-1.3c0.6,0,1.2,0.4,1.4,1c0.2-0.1,0.5-0.1,0.7-0.2c0.5,1.1,1.6,1.9,3,1.9
	c1.8,0,3.2-1.3,3.2-3C22.5,9.3,21.1,8,19.3,8z"/>
<g>
	<path class="st1" d="M15.2,9.7h-2.3l-2.8,7.6h1.5l1.1-1.1v-1.9c0-0.1,0-0.2,0.1-0.2l1-1.1c0.1-0.1,0.2-0.1,0.3-0.1
		c0.1,0,0.2,0,0.3,0.1l1,1.1c0.1,0.1,0.1,0.2,0.1,0.2v1.9l1.1,1.1h1.5L15.2,9.7z"/>
	<polygon class="st1" points="13.1,17.4 13.2,19.1 14,20.9 14.8,19.1 14.9,17.4 14,17.4 	"/>
</g>
<circle class="st2" cx="14" cy="12" r="11.5"/>
</svg>
