<?xml version="1.0" encoding="utf-8"?>
<!-- Generator: Adobe Illustrator 27.6.1, SVG Export Plug-In . SVG Version: 6.00 Build 0)  -->
<svg version="1.1" id="Layer_1" xmlns="http://www.w3.org/2000/svg" xmlns:xlink="http://www.w3.org/1999/xlink" x="0px" y="0px"
	 viewBox="0 0 512 512" style="enable-background:new 0 0 512 512;" xml:space="preserve">
<style type="text/css">
	.st0{fill:#2D0E58;}
	.st1{fill-rule:evenodd;clip-rule:evenodd;fill:#2D0E58;stroke:#2D0E58;stroke-width:15;}
</style>
<path class="st0" d="M28.4,475.1h455.1c15.7,0,28.4-12.7,28.4-28.4c0-15.7-12.7-28.4-28.4-28.4H28.4C12.7,418.2,0,431,0,446.7
	C0,462.4,12.7,475.1,28.4,475.1z M93,284.4h390.6c15.7,0,28.4-12.7,28.4-28.4c0-15.7-12.7-28.4-28.4-28.4H93
	c-15.7,0-28.4,12.7-28.4,28.4C64.6,271.7,77.3,284.4,93,284.4z M28.4,93.8h455.1c15.7,0,28.4-12.7,28.4-28.4s-12.7-28.4-28.4-28.4
	H28.4C12.7,36.9,0,49.6,0,65.3S12.7,93.8,28.4,93.8z"/>
<path class="st1" d="M327.2,256.5c0-9.4-7.6-17.1-17.1-17.1H78.3l73.3-73.3c6.7-6.7,6.7-17.5,0-24.1c-6.7-6.7-17.5-6.7-24.1,0
	L25,244.4c-6.7,6.7-6.7,17.5,0,24.1l102.4,102.4c6.7,6.7,17.5,6.7,24.1,0c6.7-6.7,6.7-17.5,0-24.1l-73.3-73.3h231.9
	C319.6,273.5,327.2,265.9,327.2,256.5z"/>
</svg>
